<?xml version="1.0" encoding="utf-8"?>
<!-- Generator: Adobe Illustrator 17.0.0, SVG Export Plug-In . SVG Version: 6.00 Build 0)  -->
<!DOCTYPE svg PUBLIC "-//W3C//DTD SVG 1.1//EN" "http://www.w3.org/Graphics/SVG/1.1/DTD/svg11.dtd">
<svg version="1.1" id="Layer_1" xmlns="http://www.w3.org/2000/svg" xmlns:xlink="http://www.w3.org/1999/xlink" x="0px" y="0px"
	 width="578.126px" height="135.565px" viewBox="0 0 578.126 135.565" enable-background="new 0 0 578.126 135.565"
	 xml:space="preserve">
<g>
	<g opacity="0.3">
		<path d="M40.314,87.195h-1.591c-3.493,0-6.189-0.928-8.09-2.784c-1.901-1.856-2.851-4.531-2.851-8.023V64.187
			c0-3.491,0.95-6.167,2.851-8.024c1.901-1.856,4.597-2.784,8.09-2.784H54.04c0.972,0,1.459,0.464,1.459,1.392v31.032
			c0,0.928-0.487,1.392-1.459,1.392h-5.57c-0.928,0-1.392-0.464-1.392-1.392v-2.189h-0.265c-0.487,1.194-1.349,2.089-2.586,2.686
			C42.988,86.897,41.684,87.195,40.314,87.195z M47.078,74.861v-13.46c0-0.486-0.265-0.73-0.796-0.73h-6.233
			c-1.415,0-2.41,0.299-2.984,0.896c-0.575,0.597-0.862,1.603-0.862,3.018v11.404c0,1.415,0.287,2.421,0.862,3.016
			c0.574,0.598,1.569,0.896,2.984,0.896h2.454C45.552,79.901,47.078,78.222,47.078,74.861z"/>
		<path d="M74.992,87.195h-2.188c-3.404,0-5.979-0.928-7.725-2.784c-1.747-1.856-2.619-4.531-2.619-8.023V54.771
			c0-0.928,0.464-1.392,1.392-1.392h5.636c0.929,0,1.393,0.464,1.393,1.392v21.219c0,1.415,0.298,2.421,0.895,3.016
			c0.597,0.598,1.58,0.896,2.951,0.896h2.453c3.05,0,4.575-1.679,4.575-5.04V54.771c0-0.928,0.464-1.392,1.393-1.392h5.569
			c0.972,0,1.459,0.464,1.459,1.392v31.032c0,0.928-0.487,1.392-1.459,1.392h-5.569c-0.929,0-1.393-0.464-1.393-1.392v-2.189h-0.265
			c-0.487,1.194-1.349,2.089-2.586,2.686C77.667,86.897,76.362,87.195,74.992,87.195z"/>
		<path d="M109.87,87.195h-2.719c-3.404,0-5.979-0.928-7.725-2.784c-1.747-1.856-2.619-4.531-2.619-8.023V64.187
			c0-3.491,0.872-6.167,2.619-8.024c1.746-1.856,4.321-2.784,7.725-2.784h2.719c1.37,0,2.674,0.298,3.912,0.896
			c1.237,0.596,2.099,1.491,2.586,2.685h0.265V41.973c0-0.928,0.464-1.392,1.392-1.392h5.636c0.928,0,1.392,0.464,1.392,1.392
			v43.829c0,0.928-0.464,1.392-1.392,1.392h-5.636c-0.928,0-1.392-0.464-1.392-1.392v-2.189h-0.265
			c-0.487,1.194-1.349,2.089-2.586,2.686C112.543,86.897,111.239,87.195,109.87,87.195z M116.633,74.861v-9.15
			c0-3.359-1.525-5.04-4.575-5.04h-2.984c-1.415,0-2.41,0.299-2.984,0.896c-0.575,0.597-0.862,1.603-0.862,3.018v11.404
			c0,1.415,0.287,2.421,0.862,3.016c0.574,0.598,1.569,0.896,2.984,0.896h2.984C115.108,79.901,116.633,78.222,116.633,74.861z"/>
		<path d="M132.678,47.676v-5.768c0-0.884,0.441-1.326,1.326-1.326h5.769c0.884,0,1.326,0.421,1.326,1.261v5.834
			c0,0.885-0.442,1.326-1.326,1.326h-5.769C133.12,49.002,132.678,48.561,132.678,47.676z M132.678,85.803V54.771
			c0-0.928,0.441-1.392,1.326-1.392h5.703c0.928,0,1.393,0.464,1.393,1.392v31.032c0,0.575-0.1,0.952-0.298,1.127
			c-0.199,0.178-0.542,0.265-1.028,0.265h-5.703C133.142,87.195,132.678,86.731,132.678,85.803z"/>
		<path d="M164.903,87.195h-5.901c-3.493,0-6.189-0.928-8.09-2.784c-1.901-1.856-2.851-4.531-2.851-8.023V64.187
			c0-3.491,0.95-6.167,2.851-8.024c1.901-1.856,4.597-2.784,8.09-2.784h5.901c3.448,0,6.134,0.94,8.056,2.819
			c1.923,1.878,2.884,4.541,2.884,7.989v12.201c0,3.447-0.961,6.112-2.884,7.991C171.037,86.256,168.352,87.195,164.903,87.195z
			 M160.262,79.968h3.381c1.414,0,2.421-0.287,3.017-0.862c0.597-0.574,0.895-1.568,0.895-2.984V64.451
			c0-1.414-0.298-2.409-0.895-2.983c-0.596-0.574-1.603-0.862-3.017-0.862h-3.381c-1.415,0-2.41,0.288-2.984,0.862
			c-0.575,0.574-0.862,1.569-0.862,2.983v11.671c0,1.416,0.287,2.41,0.862,2.984C157.852,79.681,158.847,79.968,160.262,79.968z"/>
		<path d="M313.431,81.294v4.575c0,0.488-0.099,0.829-0.298,1.028c-0.199,0.199-0.563,0.298-1.094,0.298h-9.88
			c-3.493,0-6.189-0.928-8.09-2.784c-1.901-1.857-2.851-4.531-2.851-8.023V64.187c0-3.492,0.95-6.167,2.851-8.024
			c1.901-1.856,4.597-2.784,8.09-2.784h9.88c0.928,0,1.392,0.464,1.392,1.392v4.575c0,0.488-0.099,0.829-0.298,1.028
			c-0.199,0.199-0.563,0.298-1.094,0.298h-8.554c-1.371,0-2.354,0.299-2.951,0.896c-0.597,0.597-0.895,1.603-0.895,3.016v11.405
			c0,1.415,0.298,2.42,0.895,3.016c0.597,0.597,1.58,0.896,2.951,0.896h8.554C312.967,79.901,313.431,80.366,313.431,81.294z"/>
		<path d="M335.312,87.195h-5.901c-3.493,0-6.189-0.928-8.09-2.784c-1.901-1.857-2.851-4.531-2.851-8.023V64.187
			c0-3.492,0.95-6.167,2.851-8.024c1.901-1.856,4.597-2.784,8.09-2.784h5.901c3.448,0,6.134,0.94,8.056,2.818
			c1.923,1.879,2.884,4.542,2.884,7.991v12.201c0,3.447-0.961,6.112-2.884,7.989C341.446,86.256,338.76,87.195,335.312,87.195z
			 M330.671,79.967h3.381c1.414,0,2.421-0.287,3.017-0.861c0.597-0.574,0.895-1.569,0.895-2.984V64.451
			c0-1.414-0.298-2.409-0.895-2.983c-0.596-0.574-1.603-0.862-3.017-0.862h-3.381c-1.415,0-2.41,0.288-2.984,0.862
			c-0.575,0.574-0.862,1.569-0.862,2.983v11.671c0,1.415,0.287,2.41,0.862,2.984C328.261,79.68,329.255,79.967,330.671,79.967z"/>
		<path d="M359.912,87.195h-5.636c-0.928,0-1.393-0.464-1.393-1.392V54.771c0-0.928,0.465-1.392,1.393-1.392h5.636
			c0.928,0,1.392,0.464,1.392,1.392v2.189h0.266c0.53-1.061,1.426-1.923,2.685-2.587c1.26-0.663,2.707-0.994,4.343-0.994h1.857
			c3.846,0,6.608,1.415,8.288,4.243c1.502-2.829,4.088-4.243,7.758-4.243h1.923c3.403,0,5.978,0.928,7.725,2.784
			c1.746,1.857,2.619,4.532,2.619,8.024v21.616c0,0.928-0.464,1.392-1.392,1.392h-5.636c-0.928,0-1.392-0.464-1.392-1.392V64.584
			c0-1.414-0.288-2.42-0.862-3.016c-0.575-0.597-1.57-0.896-2.984-0.896h-1.658c-3.05,0-4.575,1.703-4.575,5.106v20.025
			c0,0.928-0.487,1.392-1.459,1.392h-5.569c-0.929,0-1.393-0.464-1.393-1.392V64.584c0-1.414-0.298-2.42-0.895-3.016
			c-0.597-0.597-1.603-0.896-3.017-0.896h-2.055c-3.05,0-4.575,1.68-4.575,5.04v20.091C361.304,86.731,360.84,87.195,359.912,87.195
			z"/>
		<path d="M412.824,87.195h-5.636c-0.928,0-1.393-0.464-1.393-1.392V54.771c0-0.928,0.465-1.392,1.393-1.392h5.636
			c0.928,0,1.392,0.464,1.392,1.392v2.189h0.266c0.53-1.061,1.426-1.923,2.685-2.587c1.26-0.663,2.707-0.994,4.343-0.994h1.857
			c3.846,0,6.608,1.415,8.288,4.243c1.502-2.829,4.088-4.243,7.758-4.243h1.923c3.403,0,5.978,0.928,7.725,2.784
			c1.746,1.857,2.619,4.532,2.619,8.024v21.616c0,0.928-0.464,1.392-1.392,1.392h-5.636c-0.928,0-1.392-0.464-1.392-1.392V64.584
			c0-1.414-0.288-2.42-0.862-3.016c-0.575-0.597-1.57-0.896-2.983-0.896h-1.658c-3.05,0-4.575,1.703-4.575,5.106v20.025
			c0,0.928-0.487,1.392-1.459,1.392h-5.569c-0.929,0-1.393-0.464-1.393-1.392V64.584c0-1.414-0.298-2.42-0.895-3.016
			c-0.597-0.597-1.603-0.896-3.017-0.896h-2.055c-3.05,0-4.575,1.68-4.575,5.04v20.091
			C414.216,86.731,413.752,87.195,412.824,87.195z"/>
		<path d="M474.887,87.195h-5.901c-3.493,0-6.189-0.928-8.09-2.784c-1.901-1.857-2.851-4.531-2.851-8.023V64.187
			c0-3.492,0.95-6.167,2.851-8.024c1.901-1.856,4.597-2.784,8.09-2.784h5.901c3.448,0,6.134,0.94,8.056,2.818
			c1.923,1.879,2.884,4.542,2.884,7.991v12.201c0,3.447-0.961,6.112-2.884,7.989C481.02,86.256,478.335,87.195,474.887,87.195z
			 M470.245,79.967h3.381c1.414,0,2.421-0.287,3.017-0.861c0.597-0.574,0.895-1.569,0.895-2.984V64.451
			c0-1.414-0.298-2.409-0.895-2.983c-0.596-0.574-1.603-0.862-3.017-0.862h-3.381c-1.415,0-2.41,0.288-2.984,0.862
			c-0.575,0.574-0.862,1.569-0.862,2.983v11.671c0,1.415,0.287,2.41,0.862,2.984C467.836,79.68,468.83,79.967,470.245,79.967z"/>
		<path d="M499.486,87.195h-5.636c-0.928,0-1.393-0.464-1.393-1.392V54.771c0-0.928,0.465-1.392,1.393-1.392h5.636
			c0.928,0,1.392,0.464,1.392,1.392v2.189h0.265c0.972-2.387,3.138-3.581,6.498-3.581h2.122c6.939,0,10.41,3.604,10.41,10.808
			v21.616c0,0.928-0.487,1.392-1.459,1.392h-5.57c-0.928,0-1.393-0.464-1.393-1.392V64.584c0-1.414-0.298-2.42-0.895-3.016
			s-1.603-0.896-3.017-0.896h-2.387c-3.05,0-4.575,1.68-4.575,5.04v20.091C500.879,86.731,500.415,87.195,499.486,87.195z"/>
		<path d="M539.933,87.195h-12.598c-0.885,0-1.326-0.464-1.326-1.392v-4.243c0-0.486,0.089-0.829,0.266-1.027
			c0.176-0.2,0.53-0.299,1.061-0.299h11.073c2.165,0,3.249-0.663,3.249-1.989v-0.331c0-1.061-0.906-2.077-2.719-3.051l-6.564-3.647
			c-2.255-1.148-3.912-2.387-4.973-3.713c-1.061-1.326-1.591-3.028-1.591-5.106c0-3.094,0.818-5.371,2.453-6.83
			c1.635-1.458,4.199-2.188,7.692-2.188h11.073c0.884,0,1.326,0.464,1.326,1.392v4.31c0,0.487-0.089,0.829-0.266,1.027
			c-0.177,0.199-0.53,0.298-1.061,0.298h-9.217c-2.167,0-3.249,0.554-3.249,1.658v0.332c0,0.972,0.95,1.967,2.851,2.983l6.697,3.979
			c2.298,1.238,3.912,2.509,4.84,3.813c0.928,1.304,1.392,3.016,1.392,5.138C550.343,84.235,546.872,87.195,539.933,87.195z"/>
		<path d="M267.195,60.234c-1.177-0.42-4.214-1.027-6.987,2.376c-1.648,2.024-2.654,5.107-3.717,8.373
			c-0.833,2.555-2.289,7.026-3.691,8.138c-1.756-3.367-2.901-15.575-3.472-21.665c-0.328-3.498-0.638-6.801-0.995-9.21
			c-0.389-2.625-0.978-6.592-4.518-6.592c-3.865,0-4.942,3.914-8.45,18.877c-0.488,2.082-1.062,4.533-1.6,6.651
			c-1.323-2.313-2.751-4.225-5.152-4.225c-3.514,0-4.029,3.15-5.155,10.051c-0.334,2.047-0.878,5.382-1.522,8.081
			c-0.454-2.592-0.847-5.791-1.153-8.284c-1.375-11.202-2.284-18.603-7.687-18.603c-5.141,0-6.775,6.208-8.505,12.78
			c-0.658,2.501-1.745,6.629-2.614,7.665c-0.177,0.049-0.301,0.01-0.497-0.12c-0.921-0.609-1.915-2.596-1.915-4.746
			c0-18.4,14.969-33.37,33.37-33.37c10.285,0,19.234,3.769,24.622,10.344l-4.77,3.618l6.435,1.064l6.435,1.064l0.71-6.483
			l0.71-6.483l-4.23,3.208c-6.64-8.238-17.53-12.962-29.912-12.962c-22.056,0-40,17.944-40,40c0,4.214,1.965,8.345,4.888,10.277
			c2.123,1.404,4.584,1.624,6.933,0.625c3.473-1.48,4.758-6.361,6.247-12.014c0.42-1.597,1.009-3.832,1.616-5.567
			c0.657,2.971,1.206,7.447,1.582,10.509c1.318,10.741,2.19,17.837,7.358,17.837c5.607,0,6.984-8.44,8.442-17.374
			c0.003-0.019,0.006-0.038,0.009-0.057c1.211,1.933,2.59,3.404,4.714,3.404c3.491,0,4.111-2.649,7.096-15.38
			c0.27-1.151,0.582-2.482,0.914-3.866c1.62,17.258,2.953,27.829,9.446,27.829c6.388,0,8.731-7.191,10.614-12.97
			c0.775-2.379,1.652-5.069,2.504-6.176c0.482,0.667,1.006,1.929,1.006,2.921c0,18.4-14.969,33.369-33.369,33.369
			c-8.494,0-16.517-3.172-22.708-8.937l4.442-3.466l-6.449-0.976l-6.449-0.976l-0.621,6.493l-0.621,6.492l4.408-3.44
			c7.52,7.377,17.46,11.44,27.997,11.44c22.056,0,40-17.944,40-40C272.935,66.173,270.741,61.495,267.195,60.234z"/>
	</g>
	<g>
		<g>
			<path fill="#1E5055" d="M40.314,85.195h-1.591c-3.493,0-6.189-0.928-8.09-2.784c-1.901-1.856-2.851-4.531-2.851-8.023V62.187
				c0-3.491,0.95-6.167,2.851-8.024c1.901-1.856,4.597-2.784,8.09-2.784H54.04c0.972,0,1.459,0.464,1.459,1.392v31.032
				c0,0.928-0.487,1.392-1.459,1.392h-5.57c-0.928,0-1.392-0.464-1.392-1.392v-2.189h-0.265c-0.487,1.194-1.349,2.089-2.586,2.686
				C42.988,84.897,41.684,85.195,40.314,85.195z M47.078,72.861v-13.46c0-0.486-0.265-0.73-0.796-0.73h-6.233
				c-1.415,0-2.41,0.299-2.984,0.896c-0.575,0.597-0.862,1.603-0.862,3.018v11.404c0,1.415,0.287,2.421,0.862,3.016
				c0.574,0.598,1.569,0.896,2.984,0.896h2.454C45.552,77.901,47.078,76.222,47.078,72.861z"/>
			<path fill="#1E5055" d="M74.992,85.195h-2.188c-3.404,0-5.979-0.928-7.725-2.784c-1.747-1.856-2.619-4.531-2.619-8.023V52.771
				c0-0.928,0.464-1.392,1.392-1.392h5.636c0.929,0,1.393,0.464,1.393,1.392v21.219c0,1.415,0.298,2.421,0.895,3.016
				c0.597,0.598,1.58,0.896,2.951,0.896h2.453c3.05,0,4.575-1.679,4.575-5.04V52.771c0-0.928,0.464-1.392,1.393-1.392h5.569
				c0.972,0,1.459,0.464,1.459,1.392v31.032c0,0.928-0.487,1.392-1.459,1.392h-5.569c-0.929,0-1.393-0.464-1.393-1.392v-2.189
				h-0.265c-0.487,1.194-1.349,2.089-2.586,2.686C77.667,84.897,76.362,85.195,74.992,85.195z"/>
			<path fill="#1E5055" d="M109.87,85.195h-2.719c-3.404,0-5.979-0.928-7.725-2.784c-1.747-1.856-2.619-4.531-2.619-8.023V62.187
				c0-3.491,0.872-6.167,2.619-8.024c1.746-1.856,4.321-2.784,7.725-2.784h2.719c1.37,0,2.674,0.298,3.912,0.896
				c1.237,0.596,2.099,1.491,2.586,2.685h0.265V39.973c0-0.928,0.464-1.392,1.392-1.392h5.636c0.928,0,1.392,0.464,1.392,1.392
				v43.829c0,0.928-0.464,1.392-1.392,1.392h-5.636c-0.928,0-1.392-0.464-1.392-1.392v-2.189h-0.265
				c-0.487,1.194-1.349,2.089-2.586,2.686C112.543,84.897,111.239,85.195,109.87,85.195z M116.633,72.861v-9.15
				c0-3.359-1.525-5.04-4.575-5.04h-2.984c-1.415,0-2.41,0.299-2.984,0.896c-0.575,0.597-0.862,1.603-0.862,3.018v11.404
				c0,1.415,0.287,2.421,0.862,3.016c0.574,0.598,1.569,0.896,2.984,0.896h2.984C115.108,77.901,116.633,76.222,116.633,72.861z"/>
			<path fill="#1E5055" d="M132.678,45.676v-5.768c0-0.884,0.441-1.326,1.326-1.326h5.769c0.884,0,1.326,0.421,1.326,1.261v5.834
				c0,0.885-0.442,1.326-1.326,1.326h-5.769C133.12,47.002,132.678,46.561,132.678,45.676z M132.678,83.803V52.771
				c0-0.928,0.441-1.392,1.326-1.392h5.703c0.928,0,1.393,0.464,1.393,1.392v31.032c0,0.575-0.1,0.952-0.298,1.127
				c-0.199,0.178-0.542,0.265-1.028,0.265h-5.703C133.142,85.195,132.678,84.731,132.678,83.803z"/>
			<path fill="#1E5055" d="M164.903,85.195h-5.901c-3.493,0-6.189-0.928-8.09-2.784c-1.901-1.856-2.851-4.531-2.851-8.023V62.187
				c0-3.491,0.95-6.167,2.851-8.024c1.901-1.856,4.597-2.784,8.09-2.784h5.901c3.448,0,6.134,0.94,8.056,2.819
				c1.923,1.878,2.884,4.541,2.884,7.989v12.201c0,3.447-0.961,6.112-2.884,7.991C171.037,84.256,168.352,85.195,164.903,85.195z
				 M160.262,77.968h3.381c1.414,0,2.421-0.287,3.017-0.862c0.597-0.574,0.895-1.568,0.895-2.984V62.451
				c0-1.414-0.298-2.409-0.895-2.983c-0.596-0.574-1.603-0.862-3.017-0.862h-3.381c-1.415,0-2.41,0.288-2.984,0.862
				c-0.575,0.574-0.862,1.569-0.862,2.983v11.671c0,1.416,0.287,2.41,0.862,2.984C157.852,77.681,158.847,77.968,160.262,77.968z"/>
		</g>
		<g>
			<path fill="#1E5055" d="M313.431,79.294v4.575c0,0.488-0.099,0.829-0.298,1.028c-0.199,0.199-0.563,0.298-1.094,0.298h-9.88
				c-3.493,0-6.189-0.928-8.09-2.784c-1.901-1.857-2.851-4.531-2.851-8.023V62.187c0-3.492,0.95-6.167,2.851-8.024
				c1.901-1.856,4.597-2.784,8.09-2.784h9.88c0.928,0,1.392,0.464,1.392,1.392v4.575c0,0.488-0.099,0.829-0.298,1.028
				c-0.199,0.199-0.563,0.298-1.094,0.298h-8.554c-1.371,0-2.354,0.299-2.951,0.896c-0.597,0.597-0.895,1.603-0.895,3.016v11.405
				c0,1.415,0.298,2.42,0.895,3.016c0.597,0.597,1.58,0.896,2.951,0.896h8.554C312.967,77.901,313.431,78.366,313.431,79.294z"/>
			<path fill="#1E5055" d="M335.312,85.195h-5.901c-3.493,0-6.189-0.928-8.09-2.784c-1.901-1.857-2.851-4.531-2.851-8.023V62.187
				c0-3.492,0.95-6.167,2.851-8.024c1.901-1.856,4.597-2.784,8.09-2.784h5.901c3.448,0,6.134,0.94,8.056,2.818
				c1.923,1.879,2.884,4.542,2.884,7.991v12.201c0,3.447-0.961,6.112-2.884,7.989C341.446,84.256,338.76,85.195,335.312,85.195z
				 M330.671,77.967h3.381c1.414,0,2.421-0.287,3.017-0.861c0.597-0.574,0.895-1.569,0.895-2.984V62.451
				c0-1.414-0.298-2.409-0.895-2.983c-0.596-0.574-1.603-0.862-3.017-0.862h-3.381c-1.415,0-2.41,0.288-2.984,0.862
				c-0.575,0.574-0.862,1.569-0.862,2.983v11.671c0,1.415,0.287,2.41,0.862,2.984C328.261,77.68,329.255,77.967,330.671,77.967z"/>
			<path fill="#1E5055" d="M359.912,85.195h-5.636c-0.928,0-1.393-0.464-1.393-1.392V52.771c0-0.928,0.465-1.392,1.393-1.392h5.636
				c0.928,0,1.392,0.464,1.392,1.392v2.189h0.266c0.53-1.061,1.426-1.923,2.685-2.587c1.26-0.663,2.707-0.994,4.343-0.994h1.857
				c3.846,0,6.608,1.415,8.288,4.243c1.502-2.829,4.088-4.243,7.758-4.243h1.923c3.403,0,5.978,0.928,7.725,2.784
				c1.746,1.857,2.619,4.532,2.619,8.024v21.616c0,0.928-0.464,1.392-1.392,1.392h-5.636c-0.928,0-1.392-0.464-1.392-1.392V62.584
				c0-1.414-0.288-2.42-0.862-3.016c-0.575-0.597-1.57-0.896-2.984-0.896h-1.658c-3.05,0-4.575,1.703-4.575,5.106v20.025
				c0,0.928-0.487,1.392-1.459,1.392h-5.569c-0.929,0-1.393-0.464-1.393-1.392V62.584c0-1.414-0.298-2.42-0.895-3.016
				c-0.597-0.597-1.603-0.896-3.017-0.896h-2.055c-3.05,0-4.575,1.68-4.575,5.04v20.091
				C361.304,84.731,360.84,85.195,359.912,85.195z"/>
			<path fill="#1E5055" d="M412.824,85.195h-5.636c-0.928,0-1.393-0.464-1.393-1.392V52.771c0-0.928,0.465-1.392,1.393-1.392h5.636
				c0.928,0,1.392,0.464,1.392,1.392v2.189h0.266c0.53-1.061,1.426-1.923,2.685-2.587c1.26-0.663,2.707-0.994,4.343-0.994h1.857
				c3.846,0,6.608,1.415,8.288,4.243c1.502-2.829,4.088-4.243,7.758-4.243h1.923c3.403,0,5.978,0.928,7.725,2.784
				c1.746,1.857,2.619,4.532,2.619,8.024v21.616c0,0.928-0.464,1.392-1.392,1.392h-5.636c-0.928,0-1.392-0.464-1.392-1.392V62.584
				c0-1.414-0.288-2.42-0.862-3.016c-0.575-0.597-1.57-0.896-2.983-0.896h-1.658c-3.05,0-4.575,1.703-4.575,5.106v20.025
				c0,0.928-0.487,1.392-1.459,1.392h-5.569c-0.929,0-1.393-0.464-1.393-1.392V62.584c0-1.414-0.298-2.42-0.895-3.016
				c-0.597-0.597-1.603-0.896-3.017-0.896h-2.055c-3.05,0-4.575,1.68-4.575,5.04v20.091
				C414.216,84.731,413.752,85.195,412.824,85.195z"/>
			<path fill="#1E5055" d="M474.887,85.195h-5.901c-3.493,0-6.189-0.928-8.09-2.784c-1.901-1.857-2.851-4.531-2.851-8.023V62.187
				c0-3.492,0.95-6.167,2.851-8.024c1.901-1.856,4.597-2.784,8.09-2.784h5.901c3.448,0,6.134,0.94,8.056,2.818
				c1.923,1.879,2.884,4.542,2.884,7.991v12.201c0,3.447-0.961,6.112-2.884,7.989C481.02,84.256,478.335,85.195,474.887,85.195z
				 M470.245,77.967h3.381c1.414,0,2.421-0.287,3.017-0.861c0.597-0.574,0.895-1.569,0.895-2.984V62.451
				c0-1.414-0.298-2.409-0.895-2.983c-0.596-0.574-1.603-0.862-3.017-0.862h-3.381c-1.415,0-2.41,0.288-2.984,0.862
				c-0.575,0.574-0.862,1.569-0.862,2.983v11.671c0,1.415,0.287,2.41,0.862,2.984C467.836,77.68,468.83,77.967,470.245,77.967z"/>
			<path fill="#1E5055" d="M499.486,85.195h-5.636c-0.928,0-1.393-0.464-1.393-1.392V52.771c0-0.928,0.465-1.392,1.393-1.392h5.636
				c0.928,0,1.392,0.464,1.392,1.392v2.189h0.265c0.972-2.387,3.138-3.581,6.498-3.581h2.122c6.939,0,10.41,3.604,10.41,10.808
				v21.616c0,0.928-0.487,1.392-1.459,1.392h-5.57c-0.928,0-1.393-0.464-1.393-1.392V62.584c0-1.414-0.298-2.42-0.895-3.016
				s-1.603-0.896-3.017-0.896h-2.387c-3.05,0-4.575,1.68-4.575,5.04v20.091C500.879,84.731,500.415,85.195,499.486,85.195z"/>
			<path fill="#1E5055" d="M539.933,85.195h-12.598c-0.885,0-1.326-0.464-1.326-1.392v-4.243c0-0.486,0.089-0.829,0.266-1.027
				c0.176-0.2,0.53-0.299,1.061-0.299h11.073c2.165,0,3.249-0.663,3.249-1.989v-0.331c0-1.061-0.906-2.077-2.719-3.051l-6.564-3.647
				c-2.255-1.148-3.912-2.387-4.973-3.713c-1.061-1.326-1.591-3.028-1.591-5.106c0-3.094,0.818-5.371,2.453-6.83
				c1.635-1.458,4.199-2.188,7.692-2.188h11.073c0.884,0,1.326,0.464,1.326,1.392v4.31c0,0.487-0.089,0.829-0.266,1.027
				c-0.177,0.199-0.53,0.298-1.061,0.298h-9.217c-2.167,0-3.249,0.554-3.249,1.658v0.332c0,0.972,0.95,1.967,2.851,2.983
				l6.697,3.979c2.298,1.238,3.912,2.509,4.84,3.813c0.928,1.304,1.392,3.016,1.392,5.138
				C550.343,82.235,546.872,85.195,539.933,85.195z"/>
		</g>
		<path fill="#0F783C" d="M267.195,58.234c-1.177-0.42-4.214-1.027-6.987,2.376c-1.648,2.024-2.654,5.107-3.717,8.373
			c-0.833,2.555-2.289,7.026-3.691,8.138c-1.756-3.367-2.901-15.575-3.472-21.665c-0.328-3.498-0.638-6.801-0.995-9.21
			c-0.389-2.625-0.978-6.592-4.518-6.592c-3.865,0-4.942,3.914-8.45,18.877c-0.488,2.082-1.062,4.533-1.6,6.651
			c-1.323-2.313-2.751-4.225-5.152-4.225c-3.514,0-4.029,3.15-5.155,10.051c-0.334,2.047-0.878,5.382-1.522,8.081
			c-0.454-2.592-0.847-5.791-1.153-8.284c-1.375-11.202-2.284-18.603-7.687-18.603c-5.141,0-6.775,6.208-8.505,12.78
			c-0.658,2.501-1.745,6.629-2.614,7.665c-0.177,0.049-0.301,0.01-0.497-0.12c-0.921-0.609-1.915-2.596-1.915-4.746
			c0-18.4,14.969-33.37,33.37-33.37c10.285,0,19.234,3.769,24.622,10.344l-4.77,3.618l6.435,1.064l6.435,1.064l0.71-6.483
			l0.71-6.483l-4.23,3.208c-6.64-8.238-17.53-12.962-29.912-12.962c-22.056,0-40,17.944-40,40c0,4.214,1.965,8.345,4.888,10.277
			c2.123,1.404,4.584,1.624,6.933,0.625c3.473-1.48,4.758-6.361,6.247-12.014c0.42-1.597,1.009-3.832,1.616-5.567
			c0.657,2.971,1.206,7.447,1.582,10.509c1.318,10.741,2.19,17.837,7.358,17.837c5.607,0,6.984-8.44,8.442-17.374
			c0.003-0.019,0.006-0.038,0.009-0.057c1.211,1.933,2.59,3.404,4.714,3.404c3.491,0,4.111-2.649,7.096-15.38
			c0.27-1.151,0.582-2.482,0.914-3.866c1.62,17.258,2.953,27.829,9.446,27.829c6.388,0,8.731-7.191,10.614-12.97
			c0.775-2.379,1.652-5.069,2.504-6.176c0.482,0.667,1.006,1.929,1.006,2.921c0,18.4-14.969,33.369-33.369,33.369
			c-8.494,0-16.517-3.172-22.708-8.937l4.442-3.466l-6.449-0.976l-6.449-0.976l-0.621,6.493l-0.621,6.492l4.408-3.44
			c7.52,7.377,17.46,11.44,27.997,11.44c22.056,0,40-17.944,40-40C272.935,64.173,270.741,59.495,267.195,58.234z"/>
	</g>
</g>
</svg>